REM MD5 e00ea679a2b25670daf16849fcb4338a
FILE "Dengeki PlayStation D16 (Japan).bin" BINARY
  TRACK 01 MODE2/2352
    INDEX 01 00:00:00
  TRACK 02 AUDIO
    INDEX 00 59:27:17
    INDEX 01 59:29:17
  TRACK 03 AUDIO
    INDEX 00 60:49:07
    INDEX 01 60:51:07
  TRACK 04 AUDIO
    INDEX 00 64:30:11
    INDEX 01 64:32:11
REM LEADOUT 68:02:11
